# xmcd
#
# Track frame offsets:
#	183
#	17740
#	35398
#	55230
#
# Disc length: 1026 seconds
#
# Revision: 1
# Processed by: cddbd v1.5PL3 Copyright (c) Steve Scherf et al.
# Submitted via: EasyCDDAExtractor 6.5.4.1
#
DISCID=29040004
DTITLE=Garth Brooks - Standing Outside The Fire [Maxi]
DYEAR=1994
DGENRE=Country
TTITLE0=Standing Outside The Fire
TTITLE1=The Night Will Only Know
TTITLE2=Dixie Chicken
TTITLE3=In Lonesome Dove
EXTD=
EXTT0=
EXTT1=
EXTT2=
EXTT3=
PLAYORDER=
